<svg xmlns="http://www.w3.org/2000/svg" viewBox="0 0 375 812" width="375" height="812">
  <!-- Background -->
  <rect width="375" height="812" fill="#fafaf9" />
  
  <!-- Status Bar Placeholder -->
  <rect x="0" y="0" width="375" height="44" fill="#f5f5f4" />
  
  <!-- Header: Mi Perfil & Settings Icon -->
  <rect x="24" y="60" width="120" height="28" rx="4" fill="#d6d3d1" />
  <circle cx="335" cy="74" r="16" fill="#e7e5e4" />
  
  <!-- User Info -->
  <circle cx="187.5" cy="160" r="48" fill="#e7e5e4" />
  <rect x="112.5" y="224" width="150" height="20" rx="4" fill="#d6d3d1" />
  <rect x="137.5" y="252" width="100" height="12" rx="4" fill="#e7e5e4" />

  <!-- Stats Grid -->
  <rect x="24" y="290" width="155" height="100" rx="16" fill="#ffffff" stroke="#e7e5e4" stroke-width="1" />
  <circle cx="48" cy="314" r="12" fill="#e7e5e4" />
  <rect x="48" y="340" width="80" height="24" rx="4" fill="#d6d3d1" />
  <rect x="48" y="370" width="100" height="12" rx="4" fill="#e7e5e4" />

  <rect x="195" y="290" width="155" height="100" rx="16" fill="#ffffff" stroke="#e7e5e4" stroke-width="1" />
  <circle cx="219" cy="314" r="12" fill="#e7e5e4" />
  <rect x="219" y="340" width="60" height="24" rx="4" fill="#d6d3d1" />
  <rect x="219" y="370" width="100" height="12" rx="4" fill="#e7e5e4" />

  <!-- Menu List -->
  <rect x="24" y="420" width="327" height="168" rx="16" fill="#ffffff" stroke="#e7e5e4" stroke-width="1" />
  
  <!-- Item 1 -->
  <circle cx="48" cy="448" r="12" fill="#e7e5e4" />
  <rect x="76" y="442" width="120" height="12" rx="4" fill="#d6d3d1" />
  <line x1="24" y1="476" x2="351" y2="476" stroke="#e7e5e4" stroke-width="1" />

  <!-- Item 2 -->
  <circle cx="48" cy="504" r="12" fill="#e7e5e4" />
  <rect x="76" y="498" width="140" height="12" rx="4" fill="#d6d3d1" />
  <line x1="24" y1="532" x2="351" y2="532" stroke="#e7e5e4" stroke-width="1" />

  <!-- Item 3 -->
  <circle cx="48" cy="560" r="12" fill="#e7e5e4" />
  <rect x="76" y="554" width="100" height="12" rx="4" fill="#d6d3d1" />

  <!-- Logout Button -->
  <rect x="24" y="612" width="327" height="48" rx="12" fill="#fef2f2" stroke="#fecaca" stroke-width="1" />
  <rect x="137.5" y="628" width="100" height="16" rx="4" fill="#ef4444" />

  <!-- Bottom Navigation (5 items) -->
  <rect x="0" y="730" width="375" height="82" fill="#ffffff" stroke="#e7e5e4" stroke-width="1" />
  <!-- Home -->
  <circle cx="37.5" cy="760" r="14" fill="#d6d3d1" />
  <!-- Calendar -->
  <circle cx="112.5" cy="760" r="14" fill="#d6d3d1" />
  <!-- Relax -->
  <circle cx="187.5" cy="760" r="14" fill="#d6d3d1" />
  <!-- Profile (Active) -->
  <circle cx="262.5" cy="760" r="14" fill="#292524" />
  <!-- Emergency -->
  <circle cx="337.5" cy="760" r="14" fill="#d6d3d1" />
</svg>
